<svg width="300" height="300" viewBox="0 0 300 300" fill="none" xmlns="http://www.w3.org/2000/svg">
<path d="M150 112.695C157.956 112.695 165.587 115.984 171.213 121.838C176.839 127.693 180 135.633 180 143.912C180 152.192 176.839 160.132 171.213 165.986C165.587 171.841 157.956 175.13 150 175.13C142.043 175.13 134.413 171.841 128.787 165.986C123.161 160.132 120 152.192 120 143.912C120 135.633 123.161 127.693 128.787 121.838C134.413 115.984 142.043 112.695 150 112.695ZM150 300C120.75 300 93.2999 291.259 70.3499 276.118L120 198.075C129.139 203.499 139.479 206.351 150 206.351C160.521 206.351 170.861 203.499 180 198.075L229.65 276.118C205.815 291.782 178.19 300.065 150 300ZM0 143.912C0 79.2923 37.5 23.7253 91.6499 0L125.1 87.0967C114.638 92.0792 105.77 100.081 99.5482 110.152C93.3265 120.223 90.0126 131.94 89.9999 143.912H0ZM210 143.912C210 118.626 195.6 97.0863 174.9 87.0967L208.35 0C235.555 11.9204 258.768 31.9401 275.074 57.5444C291.38 83.1488 300.052 113.196 300 143.912H210Z" fill="url(#paint0_angular)"/>
<defs>
<radialGradient id="paint0_angular" cx="0" cy="0" r="1" gradientUnits="userSpaceOnUse" gradientTransform="translate(150 145.5) rotate(-31.039) scale(81.9461 83.9352)">
<stop offset="0.345537" stop-color="#FFD911"/>
<stop offset="0.686372" stop-color="#2FDA40"/>
<stop offset="0.999383" stop-color="#FF1515"/>
</radialGradient>
</defs>
</svg>
