<svg width="25" height="25" viewBox="0 0 25 25" fill="none" xmlns="http://www.w3.org/2000/svg">
<path d="M12.5 0C10.8585 0 9.23303 0.323322 7.71646 0.951506C6.19989 1.57969 4.8219 2.50043 3.66117 3.66117C1.31696 6.00537 0 9.18479 0 12.5C0 15.8152 1.31696 18.9946 3.66117 21.3388C4.8219 22.4996 6.19989 23.4203 7.71646 24.0485C9.23303 24.6767 10.8585 25 12.5 25C15.8152 25 18.9946 23.683 21.3388 21.3388C23.683 18.9946 25 15.8152 25 12.5C25 10.8585 24.6767 9.23303 24.0485 7.71646C23.4203 6.19989 22.4996 4.8219 21.3388 3.66117C20.1781 2.50043 18.8001 1.57969 17.2835 0.951506C15.767 0.323322 14.1415 0 12.5 0ZM6.3375 20.35C6.875 19.225 10.15 18.125 12.5 18.125C14.85 18.125 18.125 19.225 18.6625 20.35C16.9117 21.745 14.7386 22.5032 12.5 22.5C10.175 22.5 8.0375 21.7 6.3375 20.35ZM20.45 18.5375C18.6625 16.3625 14.325 15.625 12.5 15.625C10.675 15.625 6.3375 16.3625 4.55 18.5375C3.22023 16.8058 2.49958 14.6834 2.5 12.5C2.5 6.9875 6.9875 2.5 12.5 2.5C18.0125 2.5 22.5 6.9875 22.5 12.5C22.5 14.775 21.725 16.875 20.45 18.5375ZM12.5 5C10.075 5 8.125 6.95 8.125 9.375C8.125 11.8 10.075 13.75 12.5 13.75C14.925 13.75 16.875 11.8 16.875 9.375C16.875 6.95 14.925 5 12.5 5ZM12.5 11.25C12.0027 11.25 11.5258 11.0525 11.1742 10.7008C10.8225 10.3492 10.625 9.87228 10.625 9.375C10.625 8.87772 10.8225 8.40081 11.1742 8.04917C11.5258 7.69754 12.0027 7.5 12.5 7.5C12.9973 7.5 13.4742 7.69754 13.8258 8.04917C14.1775 8.40081 14.375 8.87772 14.375 9.375C14.375 9.87228 14.1775 10.3492 13.8258 10.7008C13.4742 11.0525 12.9973 11.25 12.5 11.25Z" fill="white"/>
</svg>
