<svg width="25" height="25" viewBox="0 0 25 25" fill="none" xmlns="http://www.w3.org/2000/svg">
<path d="M8.33333 11.25H5.55556V13.75H8.33333V11.25ZM13.8889 11.25H11.1111V13.75H13.8889V11.25ZM19.4444 11.25H16.6667V13.75H19.4444V11.25ZM22.2222 2.5H20.8333V0H18.0556V2.5H6.94444V0H4.16667V2.5H2.77778C2.04107 2.5 1.33453 2.76339 0.813592 3.23223C0.292658 3.70107 0 4.33696 0 5V22.5C0 23.163 0.292658 23.7989 0.813592 24.2678C1.33453 24.7366 2.04107 25 2.77778 25H22.2222C22.9589 25 23.6655 24.7366 24.1864 24.2678C24.7073 23.7989 25 23.163 25 22.5V5C25 4.33696 24.7073 3.70107 24.1864 3.23223C23.6655 2.76339 22.9589 2.5 22.2222 2.5ZM22.2222 22.5H2.77778V8.75H22.2222V22.5Z" fill="white"/>
</svg>
