<svg width="82" height="59" viewBox="0 0 82 59" fill="none" xmlns="http://www.w3.org/2000/svg">
<g filter="url(#filter0_d)">
<path d="M18.6055 49.832C27.7575 49.832 31.4695 43.304 31.4695 35.24V2.024H25.5815V34.664C25.5815 41.768 23.0855 44.648 18.0295 44.648C14.6375 44.648 12.0135 43.112 9.9015 39.4L5.6775 42.408C8.4295 47.272 12.6535 49.832 18.6055 49.832ZM61.878 49.832C67.958 49.832 72.566 47.4 76.278 43.112L73.014 39.4C70.006 42.664 66.614 44.648 62.134 44.648C53.174 44.648 47.542 37.224 47.542 25.384C47.542 13.672 53.43 6.376 62.326 6.376C66.358 6.376 69.494 8.232 71.926 10.856L75.126 7.016C72.438 4.008 67.958 1.192 62.262 1.192C50.358 1.192 41.462 10.408 41.462 25.576C41.462 40.808 50.23 49.832 61.878 49.832Z" fill="url(#paint0_linear)"/>
<path d="M31.4695 2.024H32.4695V1.024H31.4695V2.024ZM25.5815 2.024V1.024H24.5815V2.024H25.5815ZM9.9015 39.4L10.7707 38.9055L10.2232 37.9433L9.32143 38.5854L9.9015 39.4ZM5.6775 42.408L5.09743 41.5934L4.36341 42.1161L4.80715 42.9004L5.6775 42.408ZM18.6055 50.832C23.4448 50.832 26.9691 49.0914 29.2562 46.1774C31.513 43.3018 32.4695 39.4063 32.4695 35.24H30.4695C30.4695 39.1377 29.57 42.5382 27.6829 44.9426C25.8259 47.3086 22.9182 48.832 18.6055 48.832V50.832ZM32.4695 35.24V2.024H30.4695V35.24H32.4695ZM31.4695 1.024H25.5815V3.024H31.4695V1.024ZM24.5815 2.024V34.664H26.5815V2.024H24.5815ZM24.5815 34.664C24.5815 38.1358 23.9645 40.3588 22.9134 41.7044C21.9067 42.9933 20.3619 43.648 18.0295 43.648V45.648C20.7531 45.648 22.9843 44.8627 24.4896 42.9356C25.9505 41.0652 26.5815 38.2962 26.5815 34.664H24.5815ZM18.0295 43.648C16.4932 43.648 15.1803 43.303 14.0191 42.5703C12.8496 41.8323 11.769 40.6601 10.7707 38.9055L9.03234 39.8945C10.146 41.8519 11.4334 43.3037 12.9519 44.2617C14.4787 45.225 16.1738 45.648 18.0295 45.648V43.648ZM9.32143 38.5854L5.09743 41.5934L6.25757 43.2226L10.4816 40.2146L9.32143 38.5854ZM4.80715 42.9004C6.25596 45.4611 8.11763 47.4573 10.4384 48.8082C12.7591 50.1591 15.4826 50.832 18.6055 50.832V48.832C15.7764 48.832 13.4119 48.2249 11.4446 47.0798C9.47737 45.9347 7.85104 44.2189 6.54785 41.9156L4.80715 42.9004ZM76.278 43.112L77.0341 43.7665L77.6051 43.1069L77.029 42.4517L76.278 43.112ZM73.014 39.4L73.765 38.7397L73.0314 37.9055L72.2786 38.7223L73.014 39.4ZM71.926 10.856L71.1926 11.5358L71.9659 12.3702L72.6942 11.4962L71.926 10.856ZM75.126 7.016L75.8942 7.65618L76.4467 6.99319L75.8717 6.34967L75.126 7.016ZM61.878 50.832C68.277 50.832 73.1518 48.2512 77.0341 43.7665L75.5219 42.4575C71.9802 46.5488 67.639 48.832 61.878 48.832V50.832ZM77.029 42.4517L73.765 38.7397L72.263 40.0603L75.527 43.7723L77.029 42.4517ZM72.2786 38.7223C69.4013 41.8445 66.2584 43.648 62.134 43.648V45.648C66.9696 45.648 70.6107 43.4835 73.7494 40.0777L72.2786 38.7223ZM62.134 43.648C57.962 43.648 54.611 41.9346 52.275 38.852C49.9169 35.7403 48.542 31.1591 48.542 25.384H46.542C46.542 31.4489 47.9831 36.4997 50.681 40.06C53.401 43.6494 57.346 45.648 62.134 45.648V43.648ZM48.542 25.384C48.542 19.6847 49.9753 15.1712 52.3843 12.1059C54.7749 9.06395 58.1787 7.376 62.326 7.376V5.376C57.5773 5.376 53.5891 7.33605 50.8117 10.8701C48.0527 14.3808 46.542 19.3713 46.542 25.384H48.542ZM62.326 7.376C66.0111 7.376 68.8976 9.05961 71.1926 11.5358L72.6594 10.1762C70.0904 7.40439 66.7049 5.376 62.326 5.376V7.376ZM72.6942 11.4962L75.8942 7.65618L74.3578 6.37581L71.1578 10.2158L72.6942 11.4962ZM75.8717 6.34967C73.0361 3.17655 68.3004 0.191998 62.262 0.191998V2.192C67.6156 2.192 71.8399 4.83945 74.3803 7.68233L75.8717 6.34967ZM62.262 0.191998C56.0379 0.191998 50.5599 2.60833 46.6487 7.03376C42.7446 11.4511 40.462 17.7985 40.462 25.576H42.462C42.462 18.1855 44.6274 12.3409 48.1473 8.35823C51.6601 4.38366 56.5821 2.192 62.262 2.192V0.191998ZM40.462 25.576C40.462 33.3812 42.7102 39.6964 46.5501 44.0753C50.3979 48.4631 55.7814 50.832 61.878 50.832V48.832C56.3266 48.832 51.5021 46.6889 48.0539 42.7567C44.5978 38.8156 42.462 33.0028 42.462 25.576H40.462Z" fill="black"/>
</g>
<defs>
<filter id="filter0_d" x="0.363281" y="0.191895" width="81.2417" height="58.64" filterUnits="userSpaceOnUse" color-interpolation-filters="sRGB">
<feFlood flood-opacity="0" result="BackgroundImageFix"/>
<feColorMatrix in="SourceAlpha" type="matrix" values="0 0 0 0 0 0 0 0 0 0 0 0 0 0 0 0 0 0 127 0"/>
<feOffset dy="4"/>
<feGaussianBlur stdDeviation="2"/>
<feColorMatrix type="matrix" values="0 0 0 0 0 0 0 0 0 0 0 0 0 0 0 0 0 0 0.25 0"/>
<feBlend mode="normal" in2="BackgroundImageFix" result="effect1_dropShadow"/>
<feBlend mode="normal" in="SourceGraphic" in2="effect1_dropShadow" result="shape"/>
</filter>
<linearGradient id="paint0_linear" x1="41" y1="-25" x2="41" y2="64" gradientUnits="userSpaceOnUse">
<stop stop-color="#FFD12D"/>
<stop offset="1" stop-color="#B80F93"/>
</linearGradient>
</defs>
</svg>
