<svg width="277" height="52" viewBox="0 0 277 52" fill="none" xmlns="http://www.w3.org/2000/svg">
<path d="M13.6055 51.832C22.7575 51.832 26.4695 45.304 26.4695 37.24V4.024H20.5815V36.664C20.5815 43.768 18.0855 46.648 13.0295 46.648C9.6375 46.648 7.0135 45.112 4.9015 41.4L0.6775 44.408C3.4295 49.272 7.6535 51.832 13.6055 51.832ZM48.75 51.832C53.55 51.832 57.006 49.336 60.27 45.56H60.462L60.91 51H65.774V16.248H59.95V40.888C56.622 45.048 54.126 46.776 50.542 46.776C45.934 46.776 44.014 44.024 44.014 37.56V16.248H38.19V38.264C38.19 47.096 41.454 51.832 48.75 51.832ZM86.601 51.832C94.793 51.832 99.273 47.16 99.273 41.528C99.273 34.936 93.705 32.888 88.649 30.968C84.745 29.496 81.161 28.28 81.161 24.952C81.161 22.264 83.209 19.96 87.625 19.96C90.697 19.96 93.129 21.24 95.497 23.032L98.313 19.256C95.625 17.144 91.849 15.352 87.561 15.352C80.009 15.352 75.529 19.704 75.529 25.208C75.529 31.096 80.841 33.464 85.705 35.256C89.545 36.728 93.641 38.264 93.641 41.848C93.641 44.856 91.401 47.288 86.793 47.288C82.633 47.288 79.497 45.624 76.489 43.192L73.609 47.032C76.937 49.784 81.673 51.832 86.601 51.832ZM116.957 51.832C119.069 51.832 121.373 51.192 123.357 50.552L122.205 46.2C121.053 46.648 119.453 47.096 118.237 47.096C114.205 47.096 112.861 44.664 112.861 40.376V20.984H122.269V16.248H112.861V6.456H107.997L107.293 16.248L101.853 16.568V20.984H107.037V40.248C107.037 47.16 109.533 51.832 116.957 51.832ZM162.691 51.832C168.771 51.832 173.379 49.4 177.091 45.112L173.826 41.4C170.819 44.664 167.427 46.648 162.947 46.648C153.987 46.648 148.355 39.224 148.355 27.384C148.355 15.672 154.243 8.376 163.139 8.376C167.171 8.376 170.307 10.232 172.739 12.856L175.939 9.016C173.251 6.008 168.771 3.192 163.075 3.192C151.171 3.192 142.275 12.408 142.275 27.576C142.275 42.808 151.043 51.832 162.691 51.832ZM185.263 51H191.087V25.784C194.607 22.264 197.039 20.472 200.623 20.472C205.231 20.472 207.215 23.224 207.215 29.752V51H213.039V28.984C213.039 20.088 209.711 15.352 202.415 15.352C197.679 15.352 194.095 17.976 190.895 21.176L191.087 14.008V0.0559959H185.263V51ZM232.138 51.832C236.426 51.832 240.33 49.592 243.658 46.84H243.85L244.362 51H249.162V29.624C249.162 21.048 245.578 15.352 237.13 15.352C231.562 15.352 226.634 17.848 223.434 19.896L225.738 23.928C228.49 22.072 232.138 20.216 236.17 20.216C241.866 20.216 243.338 24.504 243.338 28.984C228.554 30.648 221.962 34.424 221.962 41.976C221.962 48.248 226.314 51.832 232.138 51.832ZM233.802 47.16C230.346 47.16 227.658 45.56 227.658 41.592C227.658 37.112 231.626 34.232 243.338 32.824V42.552C239.946 45.56 237.194 47.16 233.802 47.16ZM270.27 51.832C272.382 51.832 274.686 51.192 276.67 50.552L275.518 46.2C274.366 46.648 272.766 47.096 271.55 47.096C267.518 47.096 266.174 44.664 266.174 40.376V20.984H275.582V16.248H266.174V6.456H261.31L260.606 16.248L255.166 16.568V20.984H260.35V40.248C260.35 47.16 262.845 51.832 270.27 51.832Z" fill="url(#paint0_linear)"/>
<defs>
<linearGradient id="paint0_linear" x1="138" y1="-23" x2="138" y2="66" gradientUnits="userSpaceOnUse">
<stop stop-color="#FFD12D"/>
<stop offset="1" stop-color="#B80F93"/>
</linearGradient>
</defs>
</svg>
