<svg width="43" height="43" viewBox="0 0 43 43" fill="none" xmlns="http://www.w3.org/2000/svg">
<g filter="url(#filter0_d)">
<circle cx="21.5" cy="17.5" r="17.5" fill="white"/>
<circle cx="21.5" cy="17.5" r="17" stroke="white"/>
</g>
<path d="M14.5017 26.26C17.3617 26.26 18.5217 24.22 18.5217 21.7V11.32H16.6817V21.52C16.6817 23.74 15.9017 24.64 14.3217 24.64C13.2617 24.64 12.4417 24.16 11.7817 23L10.4617 23.94C11.3217 25.46 12.6417 26.26 14.5017 26.26ZM28.0244 26.26C29.9244 26.26 31.3644 25.5 32.5244 24.16L31.5044 23C30.5644 24.02 29.5044 24.64 28.1044 24.64C25.3044 24.64 23.5444 22.32 23.5444 18.62C23.5444 14.96 25.3844 12.68 28.1644 12.68C29.4244 12.68 30.4044 13.26 31.1644 14.08L32.1644 12.88C31.3244 11.94 29.9244 11.06 28.1444 11.06C24.4244 11.06 21.6444 13.94 21.6444 18.68C21.6444 23.44 24.3844 26.26 28.0244 26.26Z" fill="black"/>
<defs>
<filter id="filter0_d" x="0" y="0" width="43" height="43" filterUnits="userSpaceOnUse" color-interpolation-filters="sRGB">
<feFlood flood-opacity="0" result="BackgroundImageFix"/>
<feColorMatrix in="SourceAlpha" type="matrix" values="0 0 0 0 0 0 0 0 0 0 0 0 0 0 0 0 0 0 127 0"/>
<feOffset dy="4"/>
<feGaussianBlur stdDeviation="2"/>
<feColorMatrix type="matrix" values="0 0 0 0 0 0 0 0 0 0 0 0 0 0 0 0 0 0 0.25 0"/>
<feBlend mode="normal" in2="BackgroundImageFix" result="effect1_dropShadow"/>
<feBlend mode="normal" in="SourceGraphic" in2="effect1_dropShadow" result="shape"/>
</filter>
</defs>
</svg>
