<svg width="35" height="35" viewBox="0 0 35 35" fill="none" xmlns="http://www.w3.org/2000/svg">
<path d="M17.5 0C15.2019 0 12.9262 0.452651 10.803 1.33211C8.67984 2.21157 6.75066 3.50061 5.12563 5.12563C1.84374 8.40752 0 12.8587 0 17.5C0 22.1413 1.84374 26.5925 5.12563 29.8744C6.75066 31.4994 8.67984 32.7884 10.803 33.6679C12.9262 34.5474 15.2019 35 17.5 35C22.1413 35 26.5925 33.1563 29.8744 29.8744C33.1563 26.5925 35 22.1413 35 17.5C35 15.2019 34.5474 12.9262 33.6679 10.803C32.7884 8.67984 31.4994 6.75066 29.8744 5.12563C28.2493 3.50061 26.3202 2.21157 24.197 1.33211C22.0738 0.452651 19.7981 0 17.5 0V0ZM8.8725 28.49C9.625 26.915 14.21 25.375 17.5 25.375C20.79 25.375 25.375 26.915 26.1275 28.49C23.6764 30.443 20.634 31.5045 17.5 31.5C14.245 31.5 11.2525 30.38 8.8725 28.49ZM28.63 25.9525C26.1275 22.9075 20.055 21.875 17.5 21.875C14.945 21.875 8.8725 22.9075 6.37 25.9525C4.50832 23.5281 3.49941 20.5567 3.5 17.5C3.5 9.7825 9.7825 3.5 17.5 3.5C25.2175 3.5 31.5 9.7825 31.5 17.5C31.5 20.685 30.415 23.625 28.63 25.9525V25.9525ZM17.5 7C14.105 7 11.375 9.73 11.375 13.125C11.375 16.52 14.105 19.25 17.5 19.25C20.895 19.25 23.625 16.52 23.625 13.125C23.625 9.73 20.895 7 17.5 7ZM17.5 15.75C16.8038 15.75 16.1361 15.4734 15.6438 14.9812C15.1516 14.4889 14.875 13.8212 14.875 13.125C14.875 12.4288 15.1516 11.7611 15.6438 11.2688C16.1361 10.7766 16.8038 10.5 17.5 10.5C18.1962 10.5 18.8639 10.7766 19.3562 11.2688C19.8484 11.7611 20.125 12.4288 20.125 13.125C20.125 13.8212 19.8484 14.4889 19.3562 14.9812C18.8639 15.4734 18.1962 15.75 17.5 15.75Z" fill="white"/>
</svg>
